<svg width="360" height="360" viewBox="0 0 360 360" fill="none" xmlns="http://www.w3.org/2000/svg" role="img" aria-labelledby="title desc">
  <title id="title">Retrato ilustrado de María Luz Genovese</title>
  <desc id="desc">Ilustración minimalista de perfil profesional sobre fondo azul claro.</desc>
  <rect width="360" height="360" rx="24" fill="#DBEAFE"/>
  <circle cx="180" cy="132" r="66" fill="#F9C2A7"/>
  <path d="M117 123C117 83 143 60 180 60C217 60 243 83 243 123V145H117V123Z" fill="#2F3E64"/>
  <path d="M92 324C92 265 132 216 180 216C228 216 268 265 268 324V336H92V324Z" fill="#0A4A7A"/>
  <rect x="114" y="152" width="132" height="52" rx="22" fill="#F9C2A7"/>
  <circle cx="154" cy="130" r="7" fill="#1F2937"/>
  <circle cx="206" cy="130" r="7" fill="#1F2937"/>
  <path d="M156 163C162 172 173 178 185 178C197 178 208 172 214 163" stroke="#9A3412" stroke-width="4" stroke-linecap="round"/>
  <rect x="132" y="250" width="96" height="14" rx="7" fill="#93C5FD"/>
</svg>
